HIERARCHY
ROOT Hips
{
    OFFSET 0.000000 0.000000 0.000000
    CHANNELS 6 Xposition Yposition Zposition Zrotation Xrotation Yrotation
    JOINT Spine
    {
        OFFSET -0.000000 7.856138 0.000000
        CHANNELS 3 Zrotation Xrotation Yrotation
        JOINT Spine1
        {
            OFFSET -0.000000 20.830866 0.000000
            CHANNELS 3 Zrotation Xrotation Yrotation
            JOINT Neck
            {
                OFFSET -0.000000 20.745317 1.885938
                CHANNELS 3 Zrotation Xrotation Yrotation
                JOINT Head
                {
                    OFFSET -0.000000 13.412918 -1.916131
                    CHANNELS 3 Zrotation Xrotation Yrotation
                    End Site
                    {
                        OFFSET -0.000000 23.951641 0.000000
                    }
                }
            }
            JOINT LeftShoulder
            {
                OFFSET 3.826675 19.078362 -0.073511
                CHANNELS 3 Zrotation Xrotation Yrotation
                JOINT LeftArm
                {
                    OFFSET 10.442133 0.000000 0.000000
                    CHANNELS 3 Zrotation Xrotation Yrotation
                    JOINT LeftForeArm
                    {
                        OFFSET 37.051945 0.000000 0.000000
                        CHANNELS 3 Zrotation Xrotation Yrotation
                        JOINT LeftHand
                        {
                            OFFSET 24.394852 0.000000 0.000000
                            CHANNELS 3 Zrotation Xrotation Yrotation
                            End Site
                            {
                                OFFSET 14.370985 0.000000 0.000000
                            }
                        }
                    }
                }
            }
            JOINT RightShoulder
            {
                OFFSET -3.827599 19.078362 -0.073511
                CHANNELS 3 Zrotation Xrotation Yrotation
                JOINT RightArm
                {
                    OFFSET -10.442133 0.000000 0.000000
                    CHANNELS 3 Zrotation Xrotation Yrotation
                    JOINT RightForeArm
                    {
                        OFFSET -37.051945 0.000000 0.000000
                        CHANNELS 3 Zrotation Xrotation Yrotation
                        JOINT RightHand
                        {
                            OFFSET -24.394852 0.000000 0.000000
                            CHANNELS 3 Zrotation Xrotation Yrotation
                            End Site
                            {
                                OFFSET -14.370985 0.000000 0.000000
                            }
                        }
                    }
                }
            }
        }
    }
    JOINT LeftUpLeg
    {
        OFFSET 9.580656 0.000000 0.000000
        CHANNELS 3 Zrotation Xrotation Yrotation
        JOINT LeftLeg
        {
            OFFSET -0.000000 -43.769192 0.000000
            CHANNELS 3 Zrotation Xrotation Yrotation
            JOINT LeftFoot
            {
                OFFSET -0.000000 -42.531967 0.000000
                CHANNELS 3 Zrotation Xrotation Yrotation
                JOINT LeftToeBase
                {
                    OFFSET -0.000000 -6.227426 14.370985
                    CHANNELS 3 Zrotation Xrotation Yrotation
                    End Site
                    {
                        OFFSET -0.000000 0.000000 3.832262
                    }
                }
            }
        }
    }
    JOINT RightUpLeg
    {
        OFFSET -9.580656 0.000000 0.000000
        CHANNELS 3 Zrotation Xrotation Yrotation
        JOINT RightLeg
        {
            OFFSET -0.000000 -43.769192 0.000000
            CHANNELS 3 Zrotation Xrotation Yrotation
            JOINT RightFoot
            {
                OFFSET -0.000000 -42.531967 0.000000
                CHANNELS 3 Zrotation Xrotation Yrotation
                JOINT RightToeBase
                {
                    OFFSET -0.000000 -6.227426 14.370985
                    CHANNELS 3 Zrotation Xrotation Yrotation
                    End Site
                    {
                        OFFSET -0.000000 0.000000 3.832262
                    }
                }
            }
        }
    }
}
MOTION
Frames:    14
Frame Time:    0.008333
0.009324    92.694008    27.017874    -0.315657    -1.567158    90.159195    -0.800265    -7.345791    0.788475    5.972751    8.530605    0.394001    -0.292572    5.342492    -0.203048    2.221701    4.507159    0.049315    10.021874    -0.754877    7.580935    -13.580937    10.251895    -13.123001    5.509100    -6.137805    -1.446533    -25.735317    -7.105353    4.566174    -17.135847    2.493309    -2.520531    21.425686    5.363245    6.052215    -6.074801    -3.908730    8.409390    -9.297009    -3.393438    -0.852672    6.162778    3.529251    -1.098592    -3.958676    2.372978    -0.322955    5.158890    -8.958544    18.121191    0.000000    0.000000    0.000000    -1.378042    -0.256479    0.903152    2.908898    6.450245    -2.215639    0.369539    -9.989437    -10.843916    0.000000    0.000000    0.000000    
0.004570    92.692711    27.022600    -0.322591    -1.569573    90.181442    -0.821511    -7.396417    0.823739    6.013448    8.637390    0.422320    -0.223508    5.269549    -0.244505    2.229182    4.411856    0.001752    10.084586    -0.774095    7.498222    -13.632363    10.173376    -13.185040    5.327561    -5.913810    -1.367827    -26.362888    -7.025267    5.044414    -17.093145    2.458775    -2.613640    21.415527    5.479534    6.083517    -6.157551    -3.892371    8.443799    -9.136230    -3.372088    -0.830545    6.172780    3.509171    -1.106155    -3.962649    2.383791    -0.338058    5.160789    -8.960114    18.110458    0.000000    0.000000    0.000000    -1.374278    -0.261355    0.909766    2.913685    6.445622    -2.211606    0.334234    -9.983508    -10.865844    0.000000    0.000000    0.000000    
-0.001567    92.691628    27.026514    -0.325641    -1.567112    90.209038    -0.813509    -7.423146    0.808925    6.029032    8.717940    0.401757    -0.233409    5.245893    -0.261626    2.267656    4.264274    -0.007754    10.102743    -0.815707    7.512861    -13.652027    10.127313    -13.219881    5.178330    -5.738693    -1.300011    -26.855350    -6.968420    5.424712    -17.115887    2.451741    -2.609681    21.401886    5.381804    6.146595    -6.039922    -3.723350    8.445883    -9.108289    -3.211313    -0.836408    6.177459    3.486704    -1.124351    -3.968614    2.401952    -0.331745    5.157024    -8.969211    18.110111    0.000000    0.000000    0.000000    -1.371710    -0.264538    0.899117    2.911988    6.448127    -2.195879    0.292489    -9.992679    -10.901013    0.000000    0.000000    0.000000    
-0.007603    92.690674    27.029722    -0.338206    -1.564592    90.233093    -0.798843    -7.435017    0.805354    6.018472    8.742059    0.396906    -0.165408    5.235765    -0.270088    2.224400    4.155730    -0.025989    10.140863    -0.840308    7.489977    -13.650803    10.181270    -13.223183    5.027987    -5.603672    -1.263227    -27.186766    -6.943760    5.799708    -17.087658    2.464144    -2.606257    21.376881    5.347832    6.196123    -6.019028    -3.612934    8.449034    -8.848262    -3.101637    -0.868383    6.181537    3.455504    -1.129867    -3.978314    2.423361    -0.347727    5.166986    -8.971394    18.112726    0.000000    0.000000    0.000000    -1.368630    -0.275851    0.883001    2.905123    6.443442    -2.198344    0.317723    -9.985339    -10.895234    0.000000    0.000000    0.000000    
-0.011081    92.691048    27.034760    -0.345837    -1.561203    90.261032    -0.840939    -7.445848    0.797903    6.119383    8.758926    0.383564    -0.161279    5.327077    -0.272621    2.183124    3.886012    -0.028632    10.109989    -0.857323    7.451073    -13.663589    10.127881    -13.235938    4.951606    -5.459077    -1.241959    -27.425947    -6.914497    6.213257    -17.117615    2.479538    -2.598967    21.345486    5.338323    6.233069    -5.988804    -3.529004    8.450516    -8.652975    -3.015209    -0.949331    6.183602    3.435762    -1.141790    -3.975137    2.433602    -0.368038    5.148261    -8.979177    18.109978    0.000000    0.000000    0.000000    -1.371780    -0.272808    0.906364    2.918848    6.420497    -2.260627    0.291611    -9.982481    -10.892311    0.000000    0.000000    0.000000    
-0.016601    92.690865    27.037167    -0.359364    -1.557727    90.277634    -0.817271    -7.460019    0.789820    6.098574    8.780462    0.374522    -0.137546    5.310773    -0.279684    2.192387    3.805166    -0.035814    10.139436    -0.861675    7.467014    -13.661716    10.096997    -13.281811    4.919493    -5.338538    -1.199243    -27.724340    -6.872591    6.453632    -17.097616    2.491390    -2.563952    21.318361    5.289001    6.275486    -5.944334    -3.424795    8.399467    -8.411544    -2.925072    -0.865322    6.184786    3.411190    -1.139310    -3.979079    2.444907    -0.386745    5.139507    -8.974442    18.112677    0.000000    0.000000    0.000000    -1.376781    -0.287626    0.907541    2.926095    6.420177    -2.234858    0.241413    -9.979074    -10.936541    0.000000    0.000000    0.000000    
-0.020138    92.691490    27.040094    -0.373009    -1.551987    90.292191    -0.816789    -7.488606    0.791501    6.113731    8.817954    0.373107    -0.125183    5.056930    -0.243129    2.233677    4.160923    -0.001058    10.163396    -0.874680    7.444069    -13.680778    10.050797    -13.305845    4.892718    -5.267904    -1.193806    -27.705889    -6.868405    6.725562    -17.107332    2.471376    -2.539501    21.313082    5.269650    6.292471    -5.919653    -3.345097    8.345268    -8.295965    -2.849694    -0.880932    6.184967    3.391106    -1.153360    -3.986027    2.439634    -0.374124    5.142824    -8.962938    18.100060    0.000000    0.000000    0.000000    -1.378416    -0.298641    0.892633    2.919050    6.410797    -2.240211    0.246254    -9.966302    -10.924060    0.000000    0.000000    0.000000    
-0.022080    92.692223    27.042263    -0.384521    -1.550097    90.308350    -0.820795    -7.524640    0.779846    6.161594    8.873227    0.355270    -0.277483    5.155947    -0.285058    2.491469    3.877180    0.004506    10.146397    -0.909490    7.446781    -13.670643    10.047267    -13.314884    4.878192    -5.209920    -1.218126    -27.545664    -6.828830    6.844454    -17.162191    2.463570    -2.501401    21.301327    5.162838    6.323805    -5.840088    -3.277398    8.345448    -8.111185    -2.772372    -1.119053    6.184533    3.378262    -1.161795    -3.987916    2.435435    -0.363812    5.136973    -8.959947    18.092203    0.000000    0.000000    0.000000    -1.380989    -0.303830    0.889739    2.925166    6.400437    -2.252281    0.256627    -9.963034    -10.928865    0.000000    0.000000    0.000000    
-0.024233    92.693352    27.043736    -0.392444    -1.546992    90.325333    -0.829089    -7.571158    0.786730    6.192100    8.958014    0.356172    -0.229870    5.124559    -0.294475    2.460190    3.797420    -0.011719    10.176673    -0.941067    7.427406    -13.680582    10.026818    -13.344001    4.905809    -5.160543    -1.241793    -27.375744    -6.753664    6.786983    -17.183367    2.417941    -2.518368    21.311108    5.165682    6.342036    -5.865915    -3.291722    8.319236    -7.826989    -2.774007    -1.337497    6.178075    3.367408    -1.169983    -3.975398    2.431028    -0.361209    5.118690    -8.955725    18.077387    0.000000    0.000000    0.000000    -1.382201    -0.306113    0.870185    2.922883    6.392183    -2.244624    0.257161    -9.959246    -10.934031    0.000000    0.000000    0.000000    
-0.025502    92.694733    27.044817    -0.406013    -1.542879    90.333153    -0.811759    -7.588600    0.781568    6.188944    8.967094    0.349665    -0.243459    5.148437    -0.284369    2.510569    3.709174    0.007418    10.182516    -0.963438    7.424038    -13.660899    10.071885    -13.338132    4.958737    -5.165359    -1.339556    -27.115320    -6.738739    6.792373    -17.168045    2.454440    -2.445084    21.273193    5.108837    6.330639    -5.847075    -3.259229    8.300597    -7.669216    -2.739259    -1.432842    6.179664    3.359366    -1.184794    -3.986769    2.417064    -0.329191    5.126799    -8.945325    18.053104    0.000000    0.000000    0.000000    -1.385981    -0.313660    0.859362    2.920800    6.382283    -2.252261    0.263616    -9.950007    -10.912871    0.000000    0.000000    0.000000    
-0.025444    92.696556    27.044275    -0.415006    -1.539387    90.343666    -0.793943    -7.618150    0.783597    6.177697    9.006484    0.349471    -0.202615    5.156547    -0.277689    2.485956    3.627662    0.009478    10.213312    -0.975613    7.414258    -13.649640    10.108331    -13.345322    5.052870    -5.192621    -1.422518    -26.857651    -6.705685    6.626618    -17.178310    2.431644    -2.424062    21.277376    5.038453    6.342414    -5.839078    -3.168926    8.261687    -7.456807    -2.656466    -1.397652    6.173604    3.359602    -1.192507    -3.978054    2.394385    -0.336954    5.092867    -8.938883    18.059557    0.000000    0.000000    0.000000    -1.391381    -0.313262    0.890228    2.927585    6.362752    -2.292277    0.241453    -9.936948    -10.908923    0.000000    0.000000    0.000000    
-0.025577    92.697075    27.043365    -0.417887    -1.535619    90.356140    -0.783396    -7.616478    0.780736    6.192113    8.993249    0.345448    -0.291210    5.205790    -0.284380    2.637375    3.549036    0.029950    10.189893    -0.981746    7.399193    -13.622707    10.196838    -13.347094    5.205079    -5.262999    -1.490185    -26.485548    -6.676295    6.319390    -17.213587    2.425643    -2.384323    21.289223    4.961647    6.346518    -5.802792    -3.116968    8.207285    -7.383169    -2.607796    -1.443685    6.167384    3.359576    -1.215854    -3.973467    2.379346    -0.304304    5.076082    -8.932846    18.034595    0.000000    0.000000    0.000000    -1.393739    -0.309516    0.871676    2.923434    6.355319    -2.283805    0.238216    -9.937919    -10.918663    0.000000    0.000000    0.000000    
-0.024866    92.698387    27.042652    -0.427505    -1.533984    90.363815    -0.781793    -7.640448    0.794427    6.208561    9.018523    0.356537    -0.212581    5.195879    -0.286263    2.552146    3.514589    0.011112    10.206834    -0.991067    7.377131    -13.605128    10.225064    -13.356395    5.293065    -5.326362    -1.622153    -26.009172    -6.650537    6.083711    -17.233665    2.413238    -2.385278    21.285152    4.944472    6.352935    -5.757516    -3.139806    8.134007    -7.405341    -2.636072    -1.463101    6.167821    3.357618    -1.228706    -3.975969    2.362216    -0.311550    5.082200    -8.926521    18.047571    0.000000    0.000000    0.000000    -1.397199    -0.314068    0.879500    2.927397    6.344035    -2.281586    0.221443    -9.933272    -10.927001    0.000000    0.000000    0.000000    
-0.023373    92.699226    27.042631    -0.428505    -1.534182    90.377625    -0.778238    -7.644765    0.799761    6.227574    9.019695    0.360135    -0.229638    5.215887    -0.291193    2.611877    3.467894    0.015435    10.196871    -0.987980    7.367489    -13.582539    10.196849    -13.366813    5.404264    -5.411542    -1.805030    -25.458513    -6.658094    5.920719    -17.243870    2.381784    -2.351605    21.269466    4.946486    6.323353    -5.740435    -3.158024    8.086258    -7.360161    -2.656156    -1.500058    6.169092    3.361425    -1.225898    -3.974421    2.352763    -0.331616    5.051596    -8.926045    18.041771    0.000000    0.000000    0.000000    -1.396290    -0.308256    0.873310    2.926482    6.341217    -2.268856    0.234218    -9.931967    -10.951457    0.000000    0.000000    0.000000    
